# xmcd
#
# Track frame offsets: 
#        150
#        18064
#        33451
#        55558
#        78787
#        96578
#        120463
#        143925
#        158818
#        182587
#        198735
#        211183
#        229064
#        253215
#        274205
#        290328
#        321302
#
# Disc length: 4521 seconds
#
# Revision: 1
# Processed by: cddbd v1.5.2PL0 Copyright (c) Steve Scherf et al.
# Submitted via: ExactAudioCopy v0.90b4
#
DISCID=ef11a711
DTITLE=JAZZ in the City 2 - Disc 1
DYEAR=2006
DGENRE=Jazz
TTITLE0=Michael Buble - Feeling Good
TTITLE1=Tony Bennett and K.D. Lang - La Vie En Rose
TTITLE2=Jamie Cullum - High and Dry
TTITLE3=The Peter Malick Group - Heart of Mine (feat. Norah Jones)
TTITLE4=Diana Krall - I Remember You
TTITLE5=Chris Botti - The Look of Love
TTITLE6=Eliane Elias - So Nice (Sambia de Verao)
TTITLE7=Everything but the Girl - Almost Blue
TTITLE8=Luther Vandross - What the World Needs Now (Album Version)
TTITLE9=George Benson - The Greatest Love of All
TTITLE10=Sinead O'Connor - I Want to Be Loved By You
TTITLE11=Basia - Waters of March (Album Version)
TTITLE12=Aselin Debison - Over the Rainbow - What a Wonderful World (M
TTITLE12=edley)
TTITLE13=Carly Simon - I Only Have Eyes for You (Album Version)
TTITLE14=Keiko Lee - Night and Day (Album Version)
TTITLE15=Rosa Passos - Besame Mucho
TTITLE16=Peter White - Fantasy
EXTD=YEAR: 2006
EXTT0=
EXTT1=
EXTT2=
EXTT3=
EXTT4=
EXTT5=
EXTT6=
EXTT7=
EXTT8=
EXTT9=
EXTT10=
EXTT11=
EXTT12=
EXTT13=
EXTT14=
EXTT15=
EXTT16=
PLAYORDER=
